<?xml version="1.0" encoding="UTF-8"?>
<svg id="Laag_1" data-name="Laag 1" xmlns="http://www.w3.org/2000/svg" viewBox="0 0 416.94 323.57">
  <defs>
    <style>
      .cls-1, .cls-2 {
        fill: none;
      }

      .cls-1, .cls-3 {
        stroke-width: 0px;
      }

      .cls-2, .cls-4 {
        stroke: #1d1d1b;
        stroke-miterlimit: 10;
      }

      .cls-4, .cls-3 {
        fill: #1d1d1b;
      }
    </style>
  </defs>
  <g>
    <line class="cls-2" x1="198.61" y1="203.11" x2="411.18" y2="203.17"/>
    <circle class="cls-4" cx="263.47" cy="146.72" r="1.18"/>
    <circle class="cls-4" cx="258.7" cy="150.26" r="1.18"/>
    <path class="cls-4" d="M261.78,155.01c0,.65-.53,1.18-1.18,1.18s-1.18-.53-1.18-1.18.53-1.18,1.18-1.18,1.18.53,1.18,1.18Z"/>
    <circle class="cls-4" cx="266.01" cy="155.17" r="1.18"/>
    <path class="cls-4" d="M268.94,150.26c0,.65-.53,1.18-1.18,1.18s-1.18-.53-1.18-1.18c0-.65.53-1.18,1.18-1.18s1.18.53,1.18,1.18Z"/>
    <circle class="cls-4" cx="331.07" cy="144.34" r="1.18"/>
    <circle class="cls-4" cx="326.29" cy="147.87" r="1.18"/>
    <circle class="cls-4" cx="328.19" cy="152.62" r="1.18"/>
    <circle class="cls-4" cx="333.61" cy="152.78" r="1.18"/>
    <circle class="cls-4" cx="335.36" cy="147.87" r="1.18"/>
    <line class="cls-2" x1="194.51" y1="209.01" x2="416.94" y2="209.06"/>
    <path class="cls-2" d="M193.08,296.36s64.43-22.15,112.64-22.15c50.57,0,109.79,22.21,109.79,22.21"/>
    <polyline class="cls-4" points="195.51 289.48 225.61 281.29 225.61 271.74 206.28 275.79 206.28 223.64 225.61 223.46 225.61 214.13 195.51 214.13"/>
    <path class="cls-4" d="M232.31,214.13l.16,64.89,27.38-6.01v-58.89h-27.54ZM240.79,270.68l-.31-47.92h11.22l.05,45.61-10.96,2.31Z"/>
    <polygon class="cls-4" points="267.07 271.89 276.55 270.65 276.55 232.92 283.8 243.24 290.39 232.92 290.39 269.29 299.17 269.04 299.17 214.13 290.34 214.13 284.1 226 275.56 214.13 267.07 214.13 267.07 271.89"/>
    <path class="cls-4" d="M307.9,214.13v54.96c7.58.06,21.83.72,30.69,1.9v-9.11h-22.6v-14.05l17-.02v-11.09l-17-.1-.16-15.5,22.77.13v-7.06l-30.69-.06Z"/>
    <polygon class="cls-4" points="412.44 214.13 402.84 214.13 402.7 227.02 390.31 214.13 378.32 214.13 402.48 239.78 402.65 283.95 412.44 287.51 412.44 214.13"/>
    <path class="cls-2" d="M222.72,287.51c29.66,30.9,131.31,32.45,164.93,0"/>
    <path class="cls-4" d="M284.18,280.38v6.64s-12.01-3.61-11.87,4.58c.14,8.28,11.87,5.79,11.87,5.79v5.23s-18.65.71-18.65-11.44c0-13.38,18.65-10.8,18.65-10.8Z"/>
    <polygon class="cls-4" points="288.92 279.88 288.92 302.97 300.32 302.97 300.32 298.42 293.97 298.35 293.97 279.88 288.92 279.88"/>
    <path class="cls-4" d="M302.84,279.88h5.02s-1.73,18.28,4.59,18.28c6.78,0,4.67-18.24,4.67-18.24l5.37-.04s3,23.8-10.46,23.49c-11.7-.28-9.18-23.49-9.18-23.49Z"/>
    <path class="cls-2" d="M209.91,307.17c9.47-2.05,6.72,11.02-2.01,9.42-10.2-1.87-9.2-11.32-3.21-15.71,11.09-8.12,38.03,9.45,51.01,12.81,27.09,7.03,42.63,1.74,51.26,9.23h0c8.91-6.57,36.44-4.51,51.98-8.85,6.59-1.84,24.15-13.35,30.9-14.51,7.5-1.29,12.67-.35,16.48,4.43,4.8,6.02,3.65,15.81-6.64,15.97-13.71.21-9.47-14.84-.71-10.53"/>
    <path class="cls-4" d="M339.3,290.68s5.56-3.27,2.79-7.18c-3.11-4.37-14.19-2.73-14.19-2.73v22.21s15.28-.39,16.94-3.57c4.14-7.94-5.53-8.73-5.53-8.73ZM331.74,283.76s7.31-.4,7.31,2.29c0,3.36-7.31,2.19-7.31,2.19v-4.48ZM331.74,299.8v-6.94s8.51-.38,8.65,3.46c.12,3.35-8.65,3.48-8.65,3.48Z"/>
    <path class="cls-3" d="M381.72,172.97l-23.61,13.77.25-13.77-10.79.04h-.69c6.24-4.78,9.76-13.41,9.76-21.89,0-14.49-11.74-26.23-26.23-26.23-11.79,0-20.29,7.01-23.6,17.71l-13.71-.3h-.34c-4.51-12.59-15.56-22.08-29.7-22.08-18,0-32.59,14.59-32.59,32.59,0,10.58,4.65,21.43,12.46,27.39l.2.15-13.91-1.95c3.11,6.83,1.99,13.56,1.99,13.56l11.44-2.74.04,13.88h139.13s-.11-12.81-.11-30.14ZM331.01,140.22c4.74,0,8.58,3.84,8.58,8.58s-3.84,8.58-8.58,8.58-8.58-3.84-8.58-8.58,3.84-8.58,8.58-8.58ZM254.84,151.19c0-4.74,3.84-8.58,8.58-8.58s8.58,3.84,8.58,8.58-3.84,8.58-8.58,8.58-8.58-3.84-8.58-8.58ZM278.24,185.9c-.48,0-1.21-.04-2.19-.12s-1.71-.13-2.2-.13c-.62,0-.98.02-1.08.07-.24.11-.36.42-.36.92,0,.61.15.96.46,1.04.13.03.32.05.59.05.44,0,1.11-.02,1.99-.07.88-.05,1.54-.07,1.99-.07.21,0,.32.56.32,1.69,0,.98-.04,1.55-.11,1.71-.04.12-.13.17-.26.17.08,0-.12-.02-.61-.07-.69-.06-1.73-.1-3.12-.1-.45,0-.7,0-.76,0-.33.05-.49.19-.49.41,0,.91.04,1.96.12,3.15.06,1.07.1,1.55.1,1.43,0,.17-.2.26-.61.29.11,0-.18,0-.86,0-1.2,0-1.97-.04-2.32-.12-.19-.04-.28-.14-.28-.3,0-.71.02-1.78.07-3.21s.07-2.5.07-3.21c0-.85-.04-1.91-.12-3.2-.12-1.98-.18-3.05-.18-3.2v-.12c-.02-.16.08-.24.28-.24.47,0,1.19,0,2.15.03.96.02,1.68.03,2.16.03.51,0,1.29-.04,2.32-.12,1.03-.08,1.8-.12,2.32-.12.32,0,.5.13.54.39,0,.28.01.69.04,1.24.01.14.05.41.13.82.06.35.1.63.1.82,0,.07-.06.11-.19.11ZM283.28,187.39c-.14,1.25-.21,2.7-.21,4.35,0,.47,0,1.17.03,2.09.02.93.03,1.62.03,2.08,0,.13-.08.22-.24.24-.22.04-.71.06-1.47.06s-1.26-.02-1.48-.06c-.14-.03-.23-.07-.26-.12-.01-.03-.02-.12-.02-.29,0-.44,0-1.11.03-2,.02-.89.03-1.56.03-2.01,0-1.82-.07-3.27-.21-4.35-.01-.1-.02-.17-.02-.2,0-.13.09-.19.26-.19s.45.02.82.06c.37.04.65.06.83.06s.47-.02.84-.05.65-.05.84-.05c.15,0,.23.06.23.19,0,.03,0,.09-.02.18ZM281.43,186.27c-.54,0-.99-.14-1.34-.42-.38-.31-.58-.73-.58-1.25s.2-.91.6-1.23c.37-.29.81-.44,1.32-.44s.93.15,1.3.45c.39.32.59.73.59,1.22,0,1.12-.63,1.68-1.89,1.68ZM289.54,162.52l18.74-.34c1.15,8.96,8.53,10.84,8.53,10.84h-33.05s4.43-5.42,5.78-10.5ZM288.68,183.01c-.17,2.77-.25,5.22-.25,7.36,0,1.75,0,3.1.02,4.03,0,.15,0,.4.03.76.02.33.03.58.03.76,0,.13-.08.22-.24.24-.29.05-.81.08-1.56.08s-1.26-.03-1.47-.08c-.14-.03-.22-.12-.24-.26v-.41c0-.57,0-1.43.02-2.57.01-1.14.02-1.99.02-2.56,0-2.7,0-3.92,0-3.69-.02-1.42-.1-2.64-.24-3.67-.01-.07-.02-.13-.02-.16,0-.14.08-.21.25-.21h3.44c.16,0,.23.07.22.2v.17ZM305.55,193.98c.02.81.03,1.42.03,1.82,0,.23-.1.35-.29.38-.19.03-.67.04-1.42.04s-1.27-.02-1.46-.06-.29-.2-.29-.47c0-.3,0-.74.03-1.32.02-.59.03-1.03.03-1.32,0-1.12-.01-1.92-.04-2.4-.04-.76-.4-1.15-1.09-1.15-.3,0-.6.13-.9.38-.3.25-.46.53-.5.84-.03.27-.04,1.06-.04,2.37,0,.3,0,.76.03,1.37.02.61.03,1.07.03,1.38,0,.21-.09.32-.28.32h-2.92c-.18,0-.27-.13-.27-.39,0-.3,0-.75.03-1.36.02-.6.03-1.06.03-1.37,0-.24,0-.6-.02-1.08s-.02-.84-.02-1.09c0-.92-.35-1.38-1.05-1.38-.28,0-.59.11-.92.33-.36.24-.54.49-.54.75,0,.58,0,1.46,0,2.62,0,1.16,0,2.03,0,2.61,0,.16-.02.26-.06.3-.04.04-.14.06-.3.08-.29.03-.74.04-1.37.04-.4,0-.86-.02-1.38-.06-.15-.01-.25-.04-.27-.07-.03-.03-.04-.13-.04-.29,0-.51,0-1.28,0-2.31,0-1.02,0-1.79,0-2.31,0-1.05-.08-2.24-.23-3.55-.01-.08-.02-.13-.02-.17,0-.11.04-.18.13-.22.14-.06.41-.11.8-.14.48-.04.77-.07.86-.09.06-.01.32-.08.76-.2.31-.09.57-.13.76-.13.12,0,.19.22.19.67,0,.45.03.67.08.67.06-.03.14-.07.22-.13.58-.45,1.03-.76,1.37-.92.49-.24,1.03-.36,1.61-.36s1.12.13,1.58.4c.52.29.86.71,1.01,1.24.34-.46.81-.85,1.41-1.17.6-.31,1.18-.47,1.74-.47.85,0,1.54.2,2.07.59.6.44.91,1.08.91,1.9,0,.34,0,.85-.03,1.54s-.03,1.2-.03,1.54c0,.4,0,1.01.03,1.82ZM316.99,195.83c0,.22-.09.35-.27.38-.21.03-.67.04-1.41.04s-1.2-.03-1.47-.08c-.21-.04-.32-.18-.32-.41,0-.55,0-1.38.03-2.49.02-1.11.03-1.94.03-2.49,0-.75-.38-1.13-1.15-1.13-.26,0-.56.1-.91.31-.38.23-.57.46-.57.7v2.38c0,.31,0,.77.02,1.39.01.62.02,1.08.02,1.39,0,.24-.1.37-.3.4-.2.03-.76.04-1.68.04-.53,0-.91-.03-1.14-.08-.23-.05-.35-.16-.35-.34,0-.51,0-1.27,0-2.29,0-1.02,0-1.78,0-2.29,0-2.1-.02-3.83-.07-5.21-.02-.48-.04-.96-.05-1.44-.03-.56-.09-1.04-.17-1.43-.02-.08-.03-.14-.03-.18,0-.1.05-.16.14-.19.2-.06.49-.09.88-.11.51-.02.81-.04.9-.05l1.74-.2c.1,0,.15.07.15.2,0,.21-.01.48-.04.84-.03.41-.04.69-.04.84-.04,1.45-.06,2.6-.06,3.44,0,.13.03.19.1.19.01,0,.18-.11.49-.34.37-.26.73-.47,1.07-.63.51-.22,1-.34,1.47-.34.82,0,1.51.22,2.06.65.6.46.9,1.09.9,1.9l-.02,6.64ZM328.4,193.77c.03.92.05,1.61.05,2.07,0,.17-.08.28-.24.33-.24.06-.76.1-1.55.1-.7,0-1.19-.02-1.46-.06-.12-.02-.2-.1-.23-.23-.02-.19-.04-.39-.06-.58-.03-.3-.08-.44-.13-.44.09,0-.23.22-.97.65-.74.44-1.41.65-2.01.65-1.7,0-2.71-.77-3.02-2.3-.14-.71-.21-1.75-.21-3.1,0-1.46.12-2.62.36-3.47.07-.26.2-.39.39-.39.3,0,.75,0,1.35,0,.6,0,1.05,0,1.35,0,.2,0,.3.08.3.25,0,.04,0,.11-.02.2-.13.87-.2,1.76-.2,2.66,0,1.12.04,1.88.11,2.29.12.71.54,1.06,1.26,1.06.28,0,.59-.13.92-.38.33-.25.5-.51.52-.78.01-.24.02-1.85.02-4.83,0-.21.02-.34.05-.38.04-.06.15-.1.35-.1.31,0,.79,0,1.42,0,.63,0,1.11,0,1.42,0,.19,0,.3.05.34.14.01.05.02.13.02.23,0,.47-.02,1.19-.07,2.14s-.07,1.66-.07,2.14.02,1.16.05,2.08ZM333.85,187.39c-.14,1.25-.21,2.7-.21,4.35,0,.47,0,1.17.03,2.09.02.93.03,1.62.03,2.08,0,.13-.08.22-.24.24-.22.04-.71.06-1.47.06s-1.26-.02-1.48-.06c-.14-.03-.23-.07-.26-.12-.01-.03-.02-.12-.02-.29,0-.44,0-1.11.03-2,.02-.89.03-1.56.03-2.01,0-1.82-.07-3.27-.21-4.35-.01-.1-.02-.17-.02-.2,0-.13.09-.19.26-.19s.45.02.82.06c.37.04.65.06.83.06s.47-.02.84-.05.65-.05.84-.05c.15,0,.23.06.23.19,0,.03,0,.09-.02.18ZM332,186.27c-.54,0-.99-.14-1.34-.42-.38-.31-.58-.73-.58-1.25s.2-.91.6-1.23c.37-.29.81-.44,1.32-.44s.93.15,1.3.45c.39.32.59.73.59,1.22,0,1.12-.63,1.68-1.89,1.68ZM340.99,188.64c-.18-.04-.36-.07-.54-.07-.38,0-.7.08-.95.25-.31.19-.46.47-.46.82,0,.23.16.51.49.86.49.52.8.87.92,1.05.33.49.49,1.01.49,1.57,0,.33-.06.67-.19,1.04-.15.4-.33.7-.56.89-.47.41-1.03.76-1.67,1.04-.69.29-1.32.44-1.9.44-.13,0-.42-.35-.86-1.04s-.67-1.12-.67-1.28c0-.06.04-.09.11-.11.45-.08.9-.17,1.36-.25.56-.18.85-.48.85-.89,0-.28-.16-.61-.49-.98-.58-.65-.89-.99-.91-1.03-.33-.46-.49-.95-.49-1.46,0-.96.49-1.78,1.46-2.46.87-.6,1.81-.9,2.8-.9.1,0,.36.35.76,1.04s.61,1.09.61,1.21c0,.06-.05.15-.14.26Z"/>
    <path class="cls-4" d="M363.74,214.13h-17.86v58.03c5.95.66,36,6.85,36,6.85,9.9-14.72,7.98-56.27-18.14-64.89ZM376.95,268.5s-18.23-3.76-21.83-4.16v-40.2h10.52c14.14,9.13,13.76,31.22,11.31,44.36Z"/>
  </g>
  <rect class="cls-1" x="113.26" width="19.49" height="54.04"/>
  <rect class="cls-1" x="154.08" y="256.74" width="19.49" height="54.04"/>
  <rect class="cls-1" x="17.28" y="120.92" width="19.49" height="54.04" transform="translate(174.97 120.92) rotate(90)"/>
  <rect class="cls-1" x="293.75" y="115.8" width="19.49" height="54.04" transform="translate(446.31 -160.68) rotate(90)"/>
</svg>